<?xml version="1.0" encoding="UTF-8"?>
<svg version="1.1" xmlns="http://www.w3.org/2000/svg" width="200" height="200">
<path d="M0 0 C66 0 132 0 200 0 C200 66 200 132 200 200 C134 200 68 200 0 200 C0 134 0 68 0 0 Z " fill="#714435" transform="translate(0,0)"/>
<path d="M0 0 C5.3713206 0.42970565 8.90377041 1.4033106 13 5 C13.8125 7.4375 13.8125 7.4375 13 10 C10.83525282 11.95629004 8.49857546 13.50212951 6 15 C10.625 12 10.625 12 14 12 C14.50838564 14.03959477 15.00633886 16.08179138 15.5 18.125 C15.7784375 19.26195313 16.056875 20.39890625 16.34375 21.5703125 C16.97028356 24.84469624 17.26780235 27.67925087 17 31 C15.68212715 32.02028865 14.34789347 33.01971384 13 34 C12.19053578 37.10197397 12.19053578 37.10197397 12 40 C12.99 40.495 12.99 40.495 14 41 C7.93109825 41.07408977 1.86245903 41.12857359 -4.20678711 41.16479492 C-6.27193791 41.17989271 -8.3370566 41.20037274 -10.40209961 41.22631836 C-13.36840739 41.26265795 -16.33429171 41.2797163 -19.30078125 41.29296875 C-20.68841423 41.31619453 -20.68841423 41.31619453 -22.1040802 41.33988953 C-22.96474594 41.34011612 -23.82541168 41.34034271 -24.7121582 41.34057617 C-25.84800102 41.35056892 -25.84800102 41.35056892 -27.00679016 41.36076355 C-29.5458809 40.90119759 -30.42561679 40.00401078 -32 38 C-32.38818359 36.07397461 -32.38818359 36.07397461 -32.3984375 33.90234375 C-32.40464111 33.10530029 -32.41084473 32.30825684 -32.41723633 31.48706055 C-32.40329834 30.64570557 -32.38936035 29.80435059 -32.375 28.9375 C-32.36557373 28.08003174 -32.35614746 27.22256348 -32.34643555 26.33911133 C-32.16388598 18.6727568 -31.33155331 11.86578859 -26.75 5.5 C-23.51359054 2.55780958 -21.29882483 1.69088256 -17 1 C-14.0625 1.375 -14.0625 1.375 -12 2 C-12 2.66 -12 3.32 -12 4 C-8.96663814 4.22893297 -6.02534949 4.36475845 -3 4 C-0.87644433 2.17728073 -0.87644433 2.17728073 0 0 Z " fill="#D4684E" transform="translate(82,80)"/>
<path d="M0 0 C2.97 0.495 2.97 0.495 6 1 C6 1.66 6 2.32 6 3 C6.99 2.34 7.98 1.68 9 1 C11.5234375 0.83984375 11.5234375 0.83984375 14.375 0.9375 C18.1329458 1.05655338 21.32608055 0.74278309 25 0 C26.93651019 -0.06533435 28.87502861 -0.08584303 30.8125 -0.0625 C31.78832031 -0.05347656 32.76414063 -0.04445313 33.76953125 -0.03515625 C34.87361328 -0.01775391 34.87361328 -0.01775391 36 0 C35.21625 0.61875 34.4325 1.2375 33.625 1.875 C31.03162353 3.89858661 31.03162353 3.89858661 29 6 C29.68707031 5.55527344 30.37414062 5.11054687 31.08203125 4.65234375 C31.98308594 4.08644531 32.88414062 3.52054687 33.8125 2.9375 C34.70582031 2.36902344 35.59914062 1.80054687 36.51953125 1.21484375 C39 0 39 0 42 1 C40.02 2.65 38.04 4.3 36 6 C36.97839844 5.33291016 36.97839844 5.33291016 37.9765625 4.65234375 C45.16173121 0 45.16173121 0 49.5625 0 C52 1 52 1 53 3 C53.11224768 13.05739225 50.16293816 24.51118552 47 34 C33.33333333 34 19.66666667 34 6 34 C8.19728609 31.75234632 10.45163555 29.84536736 13 28 C9.04 29.98 9.04 29.98 5 32 C3.20522561 28.18610442 2.62546281 25.21354337 3 21 C3.66 20.34 4.32 19.68 5 19 C4.01 19 3.02 19 2 19 C1.46678738 16.77376199 0.94889881 14.54384996 0.4375 12.3125 C0.14746094 11.07113281 -0.14257812 9.82976562 -0.44140625 8.55078125 C-0.96241956 5.23888546 -0.91852996 3.18139847 0 0 Z " fill="#CDDFDF" transform="translate(97,78)"/>
<path d="M0 0 C1.02802734 0.00322266 2.05605469 0.00644531 3.11523438 0.00976562 C4.72301758 0.02233398 4.72301758 0.02233398 6.36328125 0.03515625 C7.44673828 0.03966797 8.53019531 0.04417969 9.64648438 0.04882812 C12.3229721 0.06061882 14.99934902 0.07707562 17.67578125 0.09765625 C18.33578125 1.41765625 18.99578125 2.73765625 19.67578125 4.09765625 C19.01578125 4.75765625 18.35578125 5.41765625 17.67578125 6.09765625 C18.74828125 6.44828125 19.82078125 6.79890625 20.92578125 7.16015625 C24.21807011 8.64268795 26.35421878 10.27028909 28.0234375 13.6015625 C29.85159476 20.59672711 30.15319567 30.64484851 26.67578125 37.09765625 C24.55078125 37.91015625 24.55078125 37.91015625 22.67578125 38.09765625 C22.59328125 39.12890625 22.51078125 40.16015625 22.42578125 41.22265625 C21.4383864 46.32419632 19.44407859 49.49011321 15.61328125 52.97265625 C13.67578125 54.09765625 13.67578125 54.09765625 10.67578125 54.09765625 C10.67578125 56.07765625 10.67578125 58.05765625 10.67578125 60.09765625 C12.25359375 60.06671875 12.25359375 60.06671875 13.86328125 60.03515625 C17.01392749 60.08680619 19.61866014 60.48623203 22.67578125 61.09765625 C23.33578125 60.76765625 23.99578125 60.43765625 24.67578125 60.09765625 C25.18268709 62.15846986 25.68102744 64.22139151 26.17578125 66.28515625 C26.45421875 67.43371094 26.73265625 68.58226563 27.01953125 69.765625 C27.5907351 72.66584454 27.80861904 75.1586201 27.67578125 78.09765625 C30.64578125 77.10765625 30.64578125 77.10765625 33.67578125 76.09765625 C33.010625 76.608125 32.34546875 77.11859375 31.66015625 77.64453125 C29.33952284 80.02043965 29.33952284 80.02043965 29.50390625 83.55078125 C29.643125 84.80375 29.78234375 86.05671875 29.92578125 87.34765625 C30.0546875 88.6109375 30.18359375 89.87421875 30.31640625 91.17578125 C30.435 92.14 30.55359375 93.10421875 30.67578125 94.09765625 C30.01578125 94.09765625 29.35578125 94.09765625 28.67578125 94.09765625 C28.00173841 91.53689528 27.33636725 88.97439042 26.67578125 86.41015625 C26.485 85.68892578 26.29421875 84.96769531 26.09765625 84.22460938 C25.12712697 80.42914664 24.42622886 77.05150186 24.67578125 73.09765625 C23.84433594 73.54818359 23.84433594 73.54818359 22.99609375 74.0078125 C22.27164063 74.38808594 21.5471875 74.76835938 20.80078125 75.16015625 C20.08148438 75.54300781 19.3621875 75.92585938 18.62109375 76.3203125 C17.97914062 76.57683594 17.3371875 76.83335938 16.67578125 77.09765625 C15.68578125 76.60265625 15.68578125 76.60265625 14.67578125 76.09765625 C15.24167969 75.79472656 15.80757812 75.49179688 16.390625 75.1796875 C21.09160079 72.68776988 21.09160079 72.68776988 23.67578125 68.28515625 C23.67578125 67.56328125 23.67578125 66.84140625 23.67578125 66.09765625 C19.37178935 64.34915954 15.02827534 62.72062015 10.67578125 61.09765625 C10.34578125 61.75765625 10.01578125 62.41765625 9.67578125 63.09765625 C9.01578125 63.09765625 8.35578125 63.09765625 7.67578125 63.09765625 C8.00578125 60.45765625 8.33578125 57.81765625 8.67578125 55.09765625 C7.19078125 54.60265625 7.19078125 54.60265625 5.67578125 54.09765625 C6.70638672 53.62585938 6.70638672 53.62585938 7.7578125 53.14453125 C8.65886719 52.7165625 9.55992188 52.28859375 10.48828125 51.84765625 C11.38160156 51.43 12.27492187 51.01234375 13.1953125 50.58203125 C16.47242036 48.62092733 18.2124556 46.7238986 19.265625 43.02734375 C19.38035156 42.34929688 19.49507812 41.67125 19.61328125 40.97265625 C20.07421875 38.859375 20.07421875 38.859375 20.67578125 37.09765625 C22.73828125 35.78515625 22.73828125 35.78515625 24.67578125 35.09765625 C25.00578125 34.10765625 25.33578125 33.11765625 25.67578125 32.09765625 C24.84244792 29.93098958 24.84244792 29.93098958 22.67578125 29.09765625 C23.66578125 28.76765625 24.65578125 28.43765625 25.67578125 28.09765625 C25.67578125 27.43765625 25.67578125 26.77765625 25.67578125 26.09765625 C25.13953125 26.42765625 24.60328125 26.75765625 24.05078125 27.09765625 C21.13667515 28.32464829 18.80710417 28.23998911 15.67578125 28.09765625 C16.33578125 27.10765625 16.99578125 26.11765625 17.67578125 25.09765625 C14.01286187 22.61979902 11.06486275 21.60801456 6.67578125 21.09765625 C6.67578125 20.43765625 6.67578125 19.77765625 6.67578125 19.09765625 C5.73605469 19.65646484 5.73605469 19.65646484 4.77734375 20.2265625 C3.96007812 20.69964844 3.1428125 21.17273438 2.30078125 21.66015625 C1.48867187 22.13582031 0.6765625 22.61148438 -0.16015625 23.1015625 C-0.87429687 23.43027344 -1.5884375 23.75898437 -2.32421875 24.09765625 C-2.98421875 23.76765625 -3.64421875 23.43765625 -4.32421875 23.09765625 C-7.24968315 22.87404945 -7.24968315 22.87404945 -9.32421875 24.09765625 C-9.65421875 25.08765625 -9.98421875 26.07765625 -10.32421875 27.09765625 C-11.31421875 27.09765625 -12.30421875 27.09765625 -13.32421875 27.09765625 C-13.32421875 26.43765625 -13.32421875 25.77765625 -13.32421875 25.09765625 C-14.64421875 25.09765625 -15.96421875 25.09765625 -17.32421875 25.09765625 C-16.99421875 28.72765625 -16.66421875 32.35765625 -16.32421875 36.09765625 C-15.66421875 36.09765625 -15.00421875 36.09765625 -14.32421875 36.09765625 C-14.32421875 36.75765625 -14.32421875 37.41765625 -14.32421875 38.09765625 C-16.19921875 37.84765625 -16.19921875 37.84765625 -18.32421875 37.09765625 C-21.1168442 33.32171197 -20.69188327 28.83697013 -20.69921875 24.34765625 C-20.72371094 23.57421875 -20.74820313 22.80078125 -20.7734375 22.00390625 C-20.80741996 15.25272423 -19.0990531 9.90444646 -14.2890625 5.0390625 C-13.62003906 4.58402344 -12.95101562 4.12898438 -12.26171875 3.66015625 C-11.59011719 3.18707031 -10.91851562 2.71398437 -10.2265625 2.2265625 C-6.75883336 0.16871092 -3.9407146 -0.0217719 0 0 Z " fill="#6F4335" transform="translate(71.32421875,18.90234375)"/>
<path d="M0 0 C0 0.66 0 1.32 0 2 C0.92232422 2.03867187 0.92232422 2.03867187 1.86328125 2.078125 C8.53191489 2.54609929 8.53191489 2.54609929 11.0625 5 C12 7 12 7 12 8 C15.465 7.505 15.465 7.505 19 7 C19 8 19 9 19 10 C19.2475 10.598125 19.495 11.19625 19.75 11.8125 C19.8325 12.534375 19.915 13.25625 20 14 C18.1875 16.25 18.1875 16.25 16 18 C15.34 18 14.68 18 14 18 C13.9071875 19.794375 13.9071875 19.794375 13.8125 21.625 C13.21729742 26.29568688 11.43201707 28.72051702 8 32 C2.97722096 35.17767654 2.97722096 35.17767654 -0.0625 34.625 C-0.701875 34.41875 -1.34125 34.2125 -2 34 C-2.804375 34.20625 -3.60875 34.4125 -4.4375 34.625 C-7.8570791 35.12542621 -9.25683098 33.95940644 -12 32 C-8.08691408 28.08691408 -4.58037616 27.25243199 0.6953125 26.39453125 C3.14978556 26.03430508 3.14978556 26.03430508 6 25 C6 24.34 6 23.68 6 23 C5.01 23.7734375 5.01 23.7734375 4 24.5625 C-0.14659826 26.54941167 -2.53020565 25.83335149 -7 25 C-7 24.34 -7 23.68 -7 23 C-9.9627322 23.7391254 -9.9627322 23.7391254 -11.5 25.5 C-13 27 -13 27 -16 28 C-16.66 25.69 -17.32 23.38 -18 21 C-17.67 20.67 -17.34 20.34 -17 20 C-17.66 20 -18.32 20 -19 20 C-19 19.34 -19 18.68 -19 18 C-19.639375 17.87625 -20.27875 17.7525 -20.9375 17.625 C-21.9584375 17.315625 -21.9584375 17.315625 -23 17 C-24.20272819 14.59454362 -24.10071472 13.05003047 -24.0625 10.375 C-24.05347656 9.55773438 -24.04445312 8.74046875 -24.03515625 7.8984375 C-24.02355469 7.27195312 -24.01195312 6.64546875 -24 6 C-22.68 6 -21.36 6 -20 6 C-20 6.66 -20 7.32 -20 8 C-19.01 8 -18.02 8 -17 8 C-16.938125 7.38125 -16.87625 6.7625 -16.8125 6.125 C-16 4 -16 4 -13.625 2.6875 C-11 2 -11 2 -8 3 C-1.60869565 0 -1.60869565 0 0 0 Z " fill="#E0B394" transform="translate(78,38)"/>
<path d="M0 0 C2.97 0.495 2.97 0.495 6 1 C6 1.66 6 2.32 6 3 C6.99 2.34 7.98 1.68 9 1 C11.5234375 0.83984375 11.5234375 0.83984375 14.375 0.9375 C18.1329458 1.05655338 21.32608055 0.74278309 25 0 C26.93651019 -0.06533435 28.87502861 -0.08584303 30.8125 -0.0625 C31.78832031 -0.05347656 32.76414063 -0.04445313 33.76953125 -0.03515625 C34.87361328 -0.01775391 34.87361328 -0.01775391 36 0 C35.21625 0.61875 34.4325 1.2375 33.625 1.875 C31.03162353 3.89858661 31.03162353 3.89858661 29 6 C29.68707031 5.55527344 30.37414062 5.11054687 31.08203125 4.65234375 C31.98308594 4.08644531 32.88414062 3.52054687 33.8125 2.9375 C34.70582031 2.36902344 35.59914062 1.80054687 36.51953125 1.21484375 C39 0 39 0 42 1 C40.9275 1.7425 39.855 2.485 38.75 3.25 C36.50179163 4.84418411 34.64852347 6.35147653 32.6875 8.3125 C32.130625 8.869375 31.57375 9.42625 31 10 C30.34 10 29.68 10 29 10 C28.87882812 10.74765625 28.75765625 11.4953125 28.6328125 12.265625 C28.46523437 13.25046875 28.29765625 14.2353125 28.125 15.25 C27.88136719 16.71179688 27.88136719 16.71179688 27.6328125 18.203125 C27.05144152 20.77264117 26.29159735 22.72071056 25 25 C24.01 24.67 23.02 24.34 22 24 C20.30094366 24.94392019 18.63978318 25.95650161 17 27 C13.03922888 28.76820139 9.03540338 30.41029564 5 32 C3.20522561 28.18610442 2.62546281 25.21354337 3 21 C3.66 20.34 4.32 19.68 5 19 C4.01 19 3.02 19 2 19 C1.46678738 16.77376199 0.94889881 14.54384996 0.4375 12.3125 C0.14746094 11.07113281 -0.14257812 9.82976562 -0.44140625 8.55078125 C-0.96241956 5.23888546 -0.91852996 3.18139847 0 0 Z " fill="#CBDCDC" transform="translate(97,78)"/>
<path d="M0 0 C1.02802734 0.00322266 2.05605469 0.00644531 3.11523438 0.00976562 C4.72301758 0.02233398 4.72301758 0.02233398 6.36328125 0.03515625 C7.44673828 0.03966797 8.53019531 0.04417969 9.64648438 0.04882812 C12.3229721 0.06061882 14.99934902 0.07707562 17.67578125 0.09765625 C18.33578125 1.41765625 18.99578125 2.73765625 19.67578125 4.09765625 C19.01578125 4.75765625 18.35578125 5.41765625 17.67578125 6.09765625 C18.74828125 6.44828125 19.82078125 6.79890625 20.92578125 7.16015625 C24.21807011 8.64268795 26.35421878 10.27028909 28.0234375 13.6015625 C29.85159476 20.59672711 30.15319567 30.64484851 26.67578125 37.09765625 C24.55078125 37.91015625 24.55078125 37.91015625 22.67578125 38.09765625 C22.59328125 39.12890625 22.51078125 40.16015625 22.42578125 41.22265625 C21.4383864 46.32419632 19.44407859 49.49011321 15.61328125 52.97265625 C13.67578125 54.09765625 13.67578125 54.09765625 10.67578125 54.09765625 C10.67578125 56.07765625 10.67578125 58.05765625 10.67578125 60.09765625 C12.25359375 60.06671875 12.25359375 60.06671875 13.86328125 60.03515625 C17.01392749 60.08680619 19.61866014 60.48623203 22.67578125 61.09765625 C23.33578125 60.76765625 23.99578125 60.43765625 24.67578125 60.09765625 C25.18268709 62.15846986 25.68102744 64.22139151 26.17578125 66.28515625 C26.45421875 67.43371094 26.73265625 68.58226563 27.01953125 69.765625 C27.5907351 72.66584454 27.80861904 75.1586201 27.67578125 78.09765625 C30.64578125 77.10765625 30.64578125 77.10765625 33.67578125 76.09765625 C33.010625 76.608125 32.34546875 77.11859375 31.66015625 77.64453125 C29.33952284 80.02043965 29.33952284 80.02043965 29.50390625 83.55078125 C29.643125 84.80375 29.78234375 86.05671875 29.92578125 87.34765625 C30.0546875 88.6109375 30.18359375 89.87421875 30.31640625 91.17578125 C30.435 92.14 30.55359375 93.10421875 30.67578125 94.09765625 C30.01578125 94.09765625 29.35578125 94.09765625 28.67578125 94.09765625 C28.00173841 91.53689528 27.33636725 88.97439042 26.67578125 86.41015625 C26.485 85.68892578 26.29421875 84.96769531 26.09765625 84.22460938 C25.12712697 80.42914664 24.42622886 77.05150186 24.67578125 73.09765625 C23.84433594 73.54818359 23.84433594 73.54818359 22.99609375 74.0078125 C22.27164063 74.38808594 21.5471875 74.76835938 20.80078125 75.16015625 C20.08148438 75.54300781 19.3621875 75.92585938 18.62109375 76.3203125 C17.97914062 76.57683594 17.3371875 76.83335938 16.67578125 77.09765625 C15.68578125 76.60265625 15.68578125 76.60265625 14.67578125 76.09765625 C15.24167969 75.79472656 15.80757812 75.49179688 16.390625 75.1796875 C21.09160079 72.68776988 21.09160079 72.68776988 23.67578125 68.28515625 C23.67578125 67.56328125 23.67578125 66.84140625 23.67578125 66.09765625 C19.37178935 64.34915954 15.02827534 62.72062015 10.67578125 61.09765625 C10.34578125 61.75765625 10.01578125 62.41765625 9.67578125 63.09765625 C9.01578125 63.09765625 8.35578125 63.09765625 7.67578125 63.09765625 C8.00578125 60.45765625 8.33578125 57.81765625 8.67578125 55.09765625 C7.19078125 54.60265625 7.19078125 54.60265625 5.67578125 54.09765625 C6.70638672 53.62585938 6.70638672 53.62585938 7.7578125 53.14453125 C8.65886719 52.7165625 9.55992188 52.28859375 10.48828125 51.84765625 C11.38160156 51.43 12.27492187 51.01234375 13.1953125 50.58203125 C16.47242036 48.62092733 18.2124556 46.7238986 19.265625 43.02734375 C19.38035156 42.34929688 19.49507812 41.67125 19.61328125 40.97265625 C20.07421875 38.859375 20.07421875 38.859375 20.67578125 37.09765625 C22.73828125 35.78515625 22.73828125 35.78515625 24.67578125 35.09765625 C25.00578125 34.10765625 25.33578125 33.11765625 25.67578125 32.09765625 C24.84244792 29.93098958 24.84244792 29.93098958 22.67578125 29.09765625 C23.66578125 28.76765625 24.65578125 28.43765625 25.67578125 28.09765625 C25.67578125 27.43765625 25.67578125 26.77765625 25.67578125 26.09765625 C25.13953125 26.42765625 24.60328125 26.75765625 24.05078125 27.09765625 C21.13667515 28.32464829 18.80710417 28.23998911 15.67578125 28.09765625 C16.33578125 27.10765625 16.99578125 26.11765625 17.67578125 25.09765625 C14.01286187 22.61979902 11.06486275 21.60801456 6.67578125 21.09765625 C6.67578125 20.43765625 6.67578125 19.77765625 6.67578125 19.09765625 C5.35578125 18.43765625 4.03578125 17.77765625 2.67578125 17.09765625 C6.18458841 17.76268288 9.60902796 18.58349667 13.05078125 19.53515625 C14.00339844 19.798125 14.95601562 20.06109375 15.9375 20.33203125 C19.1875435 21.24074527 22.43366914 22.16104608 25.67578125 23.09765625 C24.88988508 16.24270321 24.88988508 16.24270321 21.36328125 10.53515625 C18.72599171 9.12451301 16.63574753 8.43593811 13.67578125 8.09765625 C14.33578125 7.10765625 14.99578125 6.11765625 15.67578125 5.09765625 C15.67578125 4.10765625 15.67578125 3.11765625 15.67578125 2.09765625 C12.82135372 2.0432862 9.96798049 2.00380651 7.11328125 1.97265625 C5.91348633 1.94751953 5.91348633 1.94751953 4.68945312 1.921875 C-1.70899043 1.86964281 -7.01723093 2.2007996 -12.13671875 6.41015625 C-16.35889694 11.59740374 -16.78821081 16.62324454 -17.32421875 23.09765625 C-11.30224237 21.89608559 -11.30224237 21.89608559 -5.51171875 19.91015625 C-2.93716968 18.95389517 -1.89387488 19.33807236 0.67578125 20.09765625 C-0.03449219 20.35160156 -0.74476562 20.60554688 -1.4765625 20.8671875 C-2.39566406 21.21136719 -3.31476563 21.55554688 -4.26171875 21.91015625 C-5.17824219 22.24660156 -6.09476563 22.58304688 -7.0390625 22.9296875 C-9.65826115 23.93174719 -9.65826115 23.93174719 -10.32421875 27.09765625 C-11.31421875 27.09765625 -12.30421875 27.09765625 -13.32421875 27.09765625 C-13.32421875 26.43765625 -13.32421875 25.77765625 -13.32421875 25.09765625 C-14.64421875 25.09765625 -15.96421875 25.09765625 -17.32421875 25.09765625 C-16.99421875 28.72765625 -16.66421875 32.35765625 -16.32421875 36.09765625 C-15.66421875 36.09765625 -15.00421875 36.09765625 -14.32421875 36.09765625 C-14.32421875 36.75765625 -14.32421875 37.41765625 -14.32421875 38.09765625 C-16.19921875 37.84765625 -16.19921875 37.84765625 -18.32421875 37.09765625 C-21.1168442 33.32171197 -20.69188327 28.83697013 -20.69921875 24.34765625 C-20.72371094 23.57421875 -20.74820313 22.80078125 -20.7734375 22.00390625 C-20.80741996 15.25272423 -19.0990531 9.90444646 -14.2890625 5.0390625 C-13.62003906 4.58402344 -12.95101562 4.12898438 -12.26171875 3.66015625 C-11.59011719 3.18707031 -10.91851562 2.71398437 -10.2265625 2.2265625 C-6.75883336 0.16871092 -3.9407146 -0.0217719 0 0 Z " fill="#332D2B" transform="translate(71.32421875,18.90234375)"/>
<path d="M0 0 C2.13360221 -0.39628834 2.13360221 -0.39628834 4 -1 C3.71715982 0.77226453 3.42339502 2.542788 3.125 4.3125 C2.96257812 5.29863281 2.80015625 6.28476563 2.6328125 7.30078125 C2 10 2 10 0 13 C-2.40260536 11.03423198 -2.99126824 10.03565468 -3.75 6.9375 C-4.75779556 3.66530845 -4.75779556 3.66530845 -8.3125 2.4375 C-11.93462132 1.71385294 -11.93462132 1.71385294 -14.875 3.125 C-17.1371426 5.12100817 -17.69474204 6.04917303 -18 9 C-16.35 9 -14.7 9 -13 9 C-13 9.66 -13 10.32 -13 11 C-12.13375 11.0825 -11.2675 11.165 -10.375 11.25 C-5.64788227 12.30047061 -2.3985223 14.6014777 1 18 C2.14155676 22.89238609 2.59066499 24.86086039 0.25 29.375 C-2.63313381 32.73865611 -4.13416825 33.89969599 -8.57421875 34.4140625 C-9.9448131 34.49351724 -11.31598131 34.56353138 -12.6875 34.625 C-13.38939453 34.66367188 -14.09128906 34.70234375 -14.81445312 34.7421875 C-16.54254655 34.8362334 -18.27123675 34.9191968 -20 35 C-21.00496852 31.98509443 -21.10335303 29.95818308 -21.0625 26.8125 C-21.05347656 25.91144531 -21.04445313 25.01039063 -21.03515625 24.08203125 C-21.02355469 23.39496094 -21.01195313 22.70789063 -21 22 C-20.01 22 -19.02 22 -18 22 C-17.525625 23.134375 -17.05125 24.26875 -16.5625 25.4375 C-15.36377917 28.75740166 -15.36377917 28.75740166 -14 30 C-11.32941149 30.14115161 -8.67567762 30.04247107 -6 30 C-5.67 27.69 -5.34 25.38 -5 23 C-5.66 23 -6.32 23 -7 23 C-7 22.01 -7 21.02 -7 20 C-7.639375 19.896875 -8.27875 19.79375 -8.9375 19.6875 C-16.59288103 17.96894507 -21.41901736 16.64981352 -26 10 C-25.34 10 -24.68 10 -24 10 C-24 8.35 -24 6.7 -24 5 C-23.38125 4.7525 -22.7625 4.505 -22.125 4.25 C-19.84456841 3.18261901 -19.84456841 3.18261901 -19.0625 0.9375 C-18 -1 -18 -1 -15.8125 -1.75 C-9.91136011 -2.27454577 -5.60579691 -1.86859897 0 0 Z " fill="#E1B394" transform="translate(97,146)"/>
<path d="M0 0 C0.81984375 0.08378906 1.6396875 0.16757813 2.484375 0.25390625 C3.56203125 0.35574219 4.6396875 0.45757812 5.75 0.5625 C6.81734375 0.66691406 7.8846875 0.77132812 8.984375 0.87890625 C11.64141204 0.98560074 13.49960572 0.81930395 16 0 C16 0.66 16 1.32 16 2 C18.64 2.33 21.28 2.66 24 3 C23.67 3.99 23.34 4.98 23 6 C20 7.125 20 7.125 17 8 C15.67579751 9.1043392 15.67579751 9.1043392 15.8125 11.875 C15.74656487 15.16570758 15.74656487 15.16570758 18 18 C19.34154764 21.6300701 20.3276994 25.19029658 21 29 C18.75 28.5 18.75 28.5 16 27 C14.76318495 24.98336257 13.81930659 22.9535172 12.89453125 20.77734375 C12.12907156 18.81541461 12.12907156 18.81541461 10 18 C10.33 19.98 10.66 21.96 11 24 C11.66 24 12.32 24 13 24 C13.33 24.99 13.66 25.98 14 27 C13.34 27.99 12.68 28.98 12 30 C11.34 30 10.68 30 10 30 C10 29.34 10 28.68 10 28 C9.34 28.33 8.68 28.66 8 29 C7.67 29.99 7.34 30.98 7 32 C6.34 31.67 5.68 31.34 5 31 C5 29.35 5 27.7 5 26 C5.66 26 6.32 26 7 26 C7 23.69 7 21.38 7 19 C6.34 18.67 5.68 18.34 5 18 C5.33 17.34 5.66 16.68 6 16 C5.34 15.67 4.68 15.34 4 15 C4 12.69 4 10.38 4 8 C3.34 7.67 2.68 7.34 2 7 C2.33 6.01 2.66 5.02 3 4 C1.68 3.67 0.36 3.34 -1 3 C-0.67 2.01 -0.34 1.02 0 0 Z " fill="#DEB192" transform="translate(104,144)"/>
<path d="M0 0 C17.49 0 34.98 0 53 0 C53.495 1.98 53.495 1.98 54 4 C52.9375 5.75 52.9375 5.75 51 7 C48 7.1875 48 7.1875 45 7 C44.01 7 43.02 7 42 7 C33.33333333 7 24.66666667 7 16 7 C15.11570312 7.04640625 14.23140625 7.0928125 13.3203125 7.140625 C12.26585938 7.17671875 11.21140625 7.2128125 10.125 7.25 C8.55105469 7.31960937 8.55105469 7.31960937 6.9453125 7.390625 C4 7 4 7 1.6171875 5.171875 C0 3 0 3 0 0 Z " fill="#B9D0D1" transform="translate(96,114)"/>
<path d="M0 0 C3.03075608 6.06151215 -0.75074482 16.62030852 -2 23 C-3.98 23.66 -5.96 24.32 -8 25 C-7.67 24.34 -7.34 23.68 -7 23 C-6.34 23 -5.68 23 -5 23 C-5 22.34 -5 21.68 -5 21 C-6.32 21.33 -7.64 21.66 -9 22 C-8.505 21.525625 -8.01 21.05125 -7.5 20.5625 C-5.88457803 19.24076302 -5.88457803 19.24076302 -6 18 C-8.31 19.32 -10.62 20.64 -13 22 C-13 21.34 -13 20.68 -13 20 C-13.66 20 -14.32 20 -15 20 C-15 20.66 -15 21.32 -15 22 C-15.99 22.33 -16.98 22.66 -18 23 C-16 19 -16 19 -14 15 C-14.99 14.67 -15.98 14.34 -17 14 C-17.6875 11.9375 -17.6875 11.9375 -18 10 C-16.88625 9.525625 -15.7725 9.05125 -14.625 8.5625 C-12.73289006 7.74693537 -10.84287291 6.92143645 -9 6 C-8.835 5.01 -8.67 4.02 -8.5 3 C-8.335 2.01 -8.17 1.02 -8 0 C-5.09660535 -1.45169732 -3.09125158 -0.72348441 0 0 Z " fill="#C8D7D7" transform="translate(149,79)"/>
<path d="M0 0 C0.66 0 1.32 0 2 0 C2 0.66 2 1.32 2 2 C3.32 1.67 4.64 1.34 6 1 C5.67 1.66 5.34 2.32 5 3 C4.34 3 3.68 3 3 3 C3 3.66 3 4.32 3 5 C3.66 5.33 4.32 5.66 5 6 C5.33 6.99 5.66 7.98 6 9 C7.98491642 8.73323796 7.98491642 8.73323796 10 8 C10.33 7.01 10.66 6.02 11 5 C11.99 5 12.98 5 14 5 C14 5.66 14 6.32 14 7 C18.92127034 7.16682272 22.50343896 7.24828052 27 5 C27 5.66 27 6.32 27 7 C23.10249269 10.11800585 19.00332652 10.71761726 14.20703125 11.47265625 C11.80892481 11.84212978 11.80892481 11.84212978 10 14 C12.91708924 15.98362069 14.12380904 15.9876191 17.75 15.625 C18.8225 15.41875 19.895 15.2125 21 15 C20.67 15.99 20.34 16.98 20 18 C20.99 18 21.98 18 23 18 C23 21.33333333 23 24.66666667 23 28 C22 29 22 29 18.625 29.25 C15 29 15 29 13.0625 27.625 C12 26 12 26 12 24 C10.68 23.67 9.36 23.34 8 23 C9.32 23 10.64 23 12 23 C12.11635105 20.70218446 12.11635105 20.70218446 11 18 C9.23431394 16.51718653 9.23431394 16.51718653 7.125 15.125 C2.85691576 12.14957927 1.45098947 9.98777629 0 5 C-0.1875 2.0625 -0.1875 2.0625 0 0 Z " fill="#3A322F" transform="translate(57,56)"/>
<path d="M0 0 C0.66 0.33 1.32 0.66 2 1 C1.071875 1.680625 0.14375 2.36125 -0.8125 3.0625 C-5.48420429 6.95191419 -7.11033613 12.12980712 -8 18 C-8.16558001 21.23009511 -8.18506304 24.45364872 -8.1875 27.6875 C-8.19974609 28.55439453 -8.21199219 29.42128906 -8.22460938 30.31445312 C-8.22654297 31.14267578 -8.22847656 31.97089844 -8.23046875 32.82421875 C-8.23457764 33.57791748 -8.23868652 34.33161621 -8.24291992 35.1081543 C-8.16474947 37.24277915 -8.16474947 37.24277915 -6 39 C-2.91475061 39.17553419 0.07964202 39.23122797 3.1640625 39.1953125 C4.07127045 39.1924826 4.97847839 39.18965271 5.91317749 39.18673706 C8.81725123 39.17552153 11.72101912 39.15041463 14.625 39.125 C16.59114139 39.11497197 18.5572876 39.10584581 20.5234375 39.09765625 C25.34907659 39.07557772 30.1744864 39.04103865 35 39 C35 37.02 35 35.04 35 33 C35.66 32.67 36.32 32.34 37 32 C37.28875 32.78375 37.5775 33.5675 37.875 34.375 C38.84912254 37.09671632 38.84912254 37.09671632 41 39 C43.32275177 39.40047444 45.65739357 39.7397104 48 40 C48 40.66 48 41.32 48 42 C40.40130429 42.12679156 32.80288142 42.21434844 25.20336914 42.2746582 C22.6183045 42.29980001 20.03331093 42.33391815 17.44848633 42.37719727 C13.73240626 42.43785922 10.01726614 42.46621419 6.30078125 42.48828125 C5.14540359 42.51408768 3.99002594 42.5398941 2.79963684 42.56648254 C-6.14047924 42.56960658 -6.14047924 42.56960658 -9.20629883 39.59448242 C-12.79445524 34.40442687 -12.10949962 30.10273079 -11.9375 23.9375 C-11.93556641 22.92494141 -11.93363281 21.91238281 -11.93164062 20.86914062 C-11.70672601 13.44695839 -9.93675103 8.60162808 -5 3 C-2.25 0.875 -2.25 0.875 0 0 Z " fill="#302A28" transform="translate(59,81)"/>
<path d="M0 0 C0.66 0 1.32 0 2 0 C1.71617054 1.75128818 1.42260471 3.50100003 1.125 5.25 C0.96257812 6.22453125 0.80015625 7.1990625 0.6328125 8.203125 C0.05144152 10.77264117 -0.70840265 12.72071056 -2 15 C-2.99 14.67 -3.98 14.34 -5 14 C-6.69905634 14.94392019 -8.36021682 15.95650161 -10 17 C-13.96077112 18.76820139 -17.96459662 20.41029564 -22 22 C-23.79840245 18.1783948 -24.61508797 15.2177461 -24 11 C-20.66913043 6.76071146 -16.75033486 4.37516743 -12 2 C-11.01 2 -10.02 2 -9 2 C-9 2.66 -9 3.32 -9 4 C-9.99 4.66 -10.98 5.32 -12 6 C-12.33 6.99 -12.66 7.98 -13 9 C-10.525 9.99 -10.525 9.99 -8 11 C-8 11.66 -8 12.32 -8 13 C-6.00080803 12.35389962 -6.00080803 12.35389962 -4 11 C-2.90665996 8.63757948 -2.90665996 8.63757948 -2.3125 5.9375 C-1.05984556 1.05984556 -1.05984556 1.05984556 0 0 Z " fill="#ACA7A2" transform="translate(124,88)"/>
<path d="M0 0 C1.02802734 0.00322266 2.05605469 0.00644531 3.11523438 0.00976562 C4.72301758 0.02233398 4.72301758 0.02233398 6.36328125 0.03515625 C7.44673828 0.03966797 8.53019531 0.04417969 9.64648438 0.04882812 C12.3229721 0.06061882 14.99934902 0.07707562 17.67578125 0.09765625 C18.33578125 1.41765625 18.99578125 2.73765625 19.67578125 4.09765625 C19.01578125 4.75765625 18.35578125 5.41765625 17.67578125 6.09765625 C18.76890625 6.51015625 19.86203125 6.92265625 20.98828125 7.34765625 C24.19419279 8.74294163 26.09738451 9.8480159 27.67578125 13.09765625 C27.86328125 16.34765625 27.86328125 16.34765625 27.67578125 19.09765625 C25.67578125 18.09765625 25.67578125 18.09765625 24.30078125 15.22265625 C22.65914194 12.06565758 21.73199383 10.80553975 18.67578125 9.09765625 C16.02643303 8.38332504 16.02643303 8.38332504 13.67578125 8.09765625 C14.33578125 7.10765625 14.99578125 6.11765625 15.67578125 5.09765625 C15.67578125 4.10765625 15.67578125 3.11765625 15.67578125 2.09765625 C12.82135372 2.0432862 9.96798049 2.00380651 7.11328125 1.97265625 C5.91348633 1.94751953 5.91348633 1.94751953 4.68945312 1.921875 C-1.70899043 1.86964281 -7.01723093 2.2007996 -12.13671875 6.41015625 C-16.35889694 11.59740374 -16.78821081 16.62324454 -17.32421875 23.09765625 C-11.30224237 21.89608559 -11.30224237 21.89608559 -5.51171875 19.91015625 C-2.93716968 18.95389517 -1.89387488 19.33807236 0.67578125 20.09765625 C-0.03449219 20.35160156 -0.74476562 20.60554688 -1.4765625 20.8671875 C-2.39566406 21.21136719 -3.31476563 21.55554688 -4.26171875 21.91015625 C-5.17824219 22.24660156 -6.09476563 22.58304688 -7.0390625 22.9296875 C-9.65826115 23.93174719 -9.65826115 23.93174719 -10.32421875 27.09765625 C-11.31421875 27.09765625 -12.30421875 27.09765625 -13.32421875 27.09765625 C-13.32421875 26.43765625 -13.32421875 25.77765625 -13.32421875 25.09765625 C-14.64421875 25.09765625 -15.96421875 25.09765625 -17.32421875 25.09765625 C-16.99421875 28.72765625 -16.66421875 32.35765625 -16.32421875 36.09765625 C-15.66421875 36.09765625 -15.00421875 36.09765625 -14.32421875 36.09765625 C-14.32421875 36.75765625 -14.32421875 37.41765625 -14.32421875 38.09765625 C-16.19921875 37.84765625 -16.19921875 37.84765625 -18.32421875 37.09765625 C-21.1168442 33.32171197 -20.69188327 28.83697013 -20.69921875 24.34765625 C-20.72371094 23.57421875 -20.74820313 22.80078125 -20.7734375 22.00390625 C-20.80741996 15.25272423 -19.0990531 9.90444646 -14.2890625 5.0390625 C-13.62003906 4.58402344 -12.95101562 4.12898438 -12.26171875 3.66015625 C-11.59011719 3.18707031 -10.91851562 2.71398437 -10.2265625 2.2265625 C-6.75883336 0.16871092 -3.9407146 -0.0217719 0 0 Z " fill="#2E2927" transform="translate(71.32421875,18.90234375)"/>
<path d="M0 0 C0.66 0.33 1.32 0.66 2 1 C-0.64 2.65 -3.28 4.3 -6 6 C-2.58328052 6.0269741 0.83322589 6.04682672 4.25 6.0625 C5.21808594 6.07087891 6.18617187 6.07925781 7.18359375 6.08789062 C8.11816406 6.09111328 9.05273438 6.09433594 10.015625 6.09765625 C11.30388184 6.10551147 11.30388184 6.10551147 12.61816406 6.11352539 C14.88670744 6.00539986 16.82631715 5.63582423 19 5 C19 5.33 19 5.66 19 6 C23.95 6.33 28.9 6.66 34 7 C34.33 6.01 34.66 5.02 35 4 C35.495 5.485 35.495 5.485 36 7 C35.34 7.99 34.68 8.98 34 10 C30.94761415 10.2608346 28.11257376 10.32382593 25.0625 10.25 C23.70088745 10.23356445 23.70088745 10.23356445 22.31176758 10.21679688 C10.20328693 10.03009106 -1.90190118 9.51768353 -14 9 C-14 8.34 -14 7.68 -14 7 C-12.68 6.67 -11.36 6.34 -10 6 C-10 6.66 -10 7.32 -10 8 C-9.34 8 -8.68 8 -8 8 C-7.979375 7.4225 -7.95875 6.845 -7.9375 6.25 C-6.39320987 2.5437037 -3.5632819 1.68787037 0 0 Z " fill="#595451" transform="translate(110,105)"/>
<path d="M0 0 C2.9765625 2.6640625 2.9765625 2.6640625 3.1875 5.6875 C3.0946875 6.8321875 3.0946875 6.8321875 3 8 C9.02197638 6.79842934 9.02197638 6.79842934 14.8125 4.8125 C17.38704907 3.85623892 18.43034387 4.24041611 21 5 C20.28972656 5.25394531 19.57945313 5.50789063 18.84765625 5.76953125 C17.46900391 6.28580078 17.46900391 6.28580078 16.0625 6.8125 C15.14597656 7.14894531 14.22945312 7.48539063 13.28515625 7.83203125 C10.6659576 8.83409094 10.6659576 8.83409094 10 12 C9.01 12 8.02 12 7 12 C7 11.34 7 10.68 7 10 C5.68 10 4.36 10 3 10 C3.33 13.63 3.66 17.26 4 21 C4.66 21 5.32 21 6 21 C6 21.66 6 22.32 6 23 C4.125 22.75 4.125 22.75 2 22 C0.20866698 19.16040544 -0.24283093 16.99816543 -0.1953125 13.671875 C-0.18886719 12.87265625 -0.18242188 12.0734375 -0.17578125 11.25 C-0.15902344 10.425 -0.14226563 9.6 -0.125 8.75 C-0.11597656 7.90953125 -0.10695312 7.0690625 -0.09765625 6.203125 C-0.07415817 4.13529396 -0.03828908 2.06761005 0 0 Z " fill="#372F2C" transform="translate(51,34)"/>
<path d="M0 0 C0.99 0.33 1.98 0.66 3 1 C3.33 3.31 3.66 5.62 4 8 C5.98 7.34 7.96 6.68 10 6 C9.33484375 6.51046875 8.6696875 7.0209375 7.984375 7.546875 C5.66374159 9.9227834 5.66374159 9.9227834 5.828125 13.453125 C5.96734375 14.70609375 6.1065625 15.9590625 6.25 17.25 C6.37890625 18.51328125 6.5078125 19.7765625 6.640625 21.078125 C6.75921875 22.04234375 6.8778125 23.0065625 7 24 C6.34 24 5.68 24 5 24 C4.32595716 21.43923903 3.660586 18.87673417 3 16.3125 C2.80921875 15.59126953 2.6184375 14.87003906 2.421875 14.12695312 C1.45134572 10.33149039 0.75044761 6.95384561 1 3 C0.16855469 3.45052734 0.16855469 3.45052734 -0.6796875 3.91015625 C-1.40414062 4.29042969 -2.12859375 4.67070313 -2.875 5.0625 C-3.95394531 5.63677734 -3.95394531 5.63677734 -5.0546875 6.22265625 C-5.69664063 6.47917969 -6.33859375 6.73570313 -7 7 C-7.66 6.67 -8.32 6.34 -9 6 C-7.57140593 4.96674014 -6.13177617 3.94872366 -4.6875 2.9375 C-3.88699219 2.36902344 -3.08648437 1.80054687 -2.26171875 1.21484375 C-1.51535156 0.81394531 -0.76898438 0.41304688 0 0 Z " fill="#493B37" transform="translate(95,89)"/>
<path d="M0 0 C-5.75 5 -5.75 5 -8 5 C-7.67 5.99 -7.34 6.98 -7 8 C-8.423125 8.928125 -8.423125 8.928125 -9.875 9.875 C-12.94445109 11.81970969 -12.94445109 11.81970969 -15 14 C-16.20272819 11.59454362 -16.10071472 10.05003047 -16.0625 7.375 C-16.05347656 6.55773438 -16.04445312 5.74046875 -16.03515625 4.8984375 C-16.02355469 4.27195312 -16.01195312 3.64546875 -16 3 C-14.68 3 -13.36 3 -12 3 C-12 3.66 -12 4.32 -12 5 C-11.01 5 -10.02 5 -9 5 C-8.938125 4.38125 -8.87625 3.7625 -8.8125 3.125 C-8 1 -8 1 -5.625 -0.3125 C-3 -1 -3 -1 0 0 Z " fill="#D3A689" transform="translate(70,41)"/>
<path d="M0 0 C1.65 0.33 3.3 0.66 5 1 C5.52197431 7.84366323 4.77226993 14.00623973 3.125 20.625 C2.95129883 21.33591797 2.77759766 22.04683594 2.59863281 22.77929688 C2.13591992 24.53948749 1.57553229 26.27340312 1 28 C0.34 28.33 -0.32 28.66 -1 29 C-0.27046505 18.5561312 -0.27046505 18.5561312 1.0625 13.6875 C2.17733061 9.30249962 2.78315332 5.85998914 1 1.625 C0.67 1.08875 0.34 0.5525 0 0 Z " fill="#2E2B2A" transform="translate(147,77)"/>
<path d="M0 0 C0.99 0 1.98 0 3 0 C3 0.66 3 1.32 3 2 C7.92127034 2.16682272 11.50343896 2.24828052 16 0 C16 0.66 16 1.32 16 2 C12.15607048 5.07514362 8.13097716 5.70762311 3.40234375 6.47265625 C0.99611911 7.0008519 -0.85581551 7.80658554 -3 9 C-3 4.73303602 -2.49977543 3.33303391 0 0 Z " fill="#755D50" transform="translate(68,61)"/>
<path d="M0 0 C0.66 0.33 1.32 0.66 2 1 C0.515 3.475 0.515 3.475 -1 6 C0.65 5.67 2.3 5.34 4 5 C2.6875 7 2.6875 7 0 9 C-3.68855385 9.36089448 -7.3051649 9.22933459 -11 9 C-9.73948004 5.21844011 -8.43553394 4.74381633 -5.0625 2.75 C-4.16660156 2.20859375 -3.27070312 1.6671875 -2.34765625 1.109375 C-1.57292969 0.74328125 -0.79820313 0.3771875 0 0 Z " fill="#BC5F48" transform="translate(64,112)"/>
<path d="M0 0 C2.64 0 5.28 0 8 0 C7.25 6.75 7.25 6.75 5 9 C1.46428571 8.46428571 1.46428571 8.46428571 0 7 C-0.04092937 4.66702567 -0.04241723 2.33294775 0 0 Z " fill="#D09D83" transform="translate(72,75)"/>
<path d="M0 0 C8.28585154 1.60033595 15.85115655 3.39296756 23 8 C20.44931155 10.35448165 19.28982642 10.98327924 15.75 11.1875 C14.8425 11.125625 13.935 11.06375 13 11 C13.66 10.01 14.32 9.02 15 8 C11.33708062 5.52214277 8.3890815 4.51035831 4 4 C4 3.34 4 2.68 4 2 C2.68 1.34 1.36 0.68 0 0 Z " fill="#54423A" transform="translate(74,36)"/>
<path d="M0 0 C1.35439668 2.70879335 1.06501451 5.00933268 1 8 C0.01 8 -0.98 8 -2 8 C-4.01151741 8.63106429 -6.01363702 9.29373761 -8 10 C-5.64722731 7.27573689 -3.37503669 6.1858237 0 5 C0 4.34 0 3.68 0 3 C-1.11375 3.680625 -2.2275 4.36125 -3.375 5.0625 C-5.2734375 6.22265625 -5.2734375 6.22265625 -7 7 C-7.66 6.67 -8.32 6.34 -9 6 C-8.625 3.0625 -8.625 3.0625 -8 0 C-5.09660535 -1.45169732 -3.09125158 -0.72348441 0 0 Z " fill="#A5A19C" transform="translate(149,79)"/>
<path d="M0 0 C1.41035675 0.01061416 2.82066524 0.03722408 4.23046875 0.078125 C4.92978516 0.08328125 5.62910156 0.0884375 6.34960938 0.09375 C10.4613699 0.15529179 14.38363976 0.54279251 18.41796875 1.328125 C18.41796875 1.988125 18.41796875 2.648125 18.41796875 3.328125 C10.16796875 3.328125 1.91796875 3.328125 -6.58203125 3.328125 C-3.58203125 0.328125 -3.58203125 0.328125 0 0 Z " fill="#4C4440" transform="translate(121.58203125,119.671875)"/>
<path d="M0 0 C2.31 0 4.62 0 7 0 C7.33 1.32 7.66 2.64 8 4 C5.44931155 6.35448165 4.28982642 6.98327924 0.75 7.1875 C-0.1575 7.125625 -1.065 7.06375 -2 7 C-1.34 4.69 -0.68 2.38 0 0 Z " fill="#B1C1C0" transform="translate(116,114)"/>
<path d="M0 0 C0.66 0.33 1.32 0.66 2 1 C0.515 2.485 0.515 2.485 -1 4 C-0.34 4.66 0.32 5.32 1 6 C-3.95 8.97 -3.95 8.97 -9 12 C-8.67 9.03 -8.34 6.06 -8 3 C-7.34 3.33 -6.68 3.66 -6 4 C-4.02 2.68 -2.04 1.36 0 0 Z " fill="#AB5944" transform="translate(59,91)"/>
<path d="M0 0 C0.66 0 1.32 0 2 0 C2 0.66 2 1.32 2 2 C3.32 1.67 4.64 1.34 6 1 C5.67 1.66 5.34 2.32 5 3 C4.34 3 3.68 3 3 3 C3 3.66 3 4.32 3 5 C3.66 5.33 4.32 5.66 5 6 C5.33 6.99 5.66 7.98 6 9 C7.32 8.67 8.64 8.34 10 8 C8.02 10.97 8.02 10.97 6 14 C2.91971052 11.22773947 1.16983589 8.99693928 0 5 C-0.125 2.1875 -0.125 2.1875 0 0 Z " fill="#473B35" transform="translate(57,56)"/>
<path d="M0 0 C0.99 0.33 1.98 0.66 3 1 C1.9275 1.7425 0.855 2.485 -0.25 3.25 C-2.56191701 4.86834191 -4.16294199 6.19349361 -6 8.375 C-8 10 -8 10 -11.75 9.75 C-13.35875 9.37875 -13.35875 9.37875 -15 9 C-13.62711444 6.25422889 -11.71715297 5.96116806 -8.9765625 4.8671875 C-6.94500975 3.97587384 -5.13644593 2.91397728 -3.25 1.75 C-2.1775 1.1725 -1.105 0.595 0 0 Z " fill="#BABFBD" transform="translate(136,78)"/>
<path d="M0 0 C0.33 0.66 0.66 1.32 1 2 C2.98 1.34 4.96 0.68 7 0 C7.33 1.32 7.66 2.64 8 4 C9.32 3.67 10.64 3.34 12 3 C10.06745228 5.0245738 8.36841312 6.42105792 6 8 C4.68 8 3.36 8 2 8 C2 6 2 6 3 5 C2.34 5 1.68 5 1 5 C1 4.34 1 3.68 1 3 C0.34 3 -0.32 3 -1 3 C-0.67 2.01 -0.34 1.02 0 0 Z " fill="#CC9E82" transform="translate(58,53)"/>
<path d="M0 0 C0.66 1.32 1.32 2.64 2 4 C0.3811004 5.03048037 -1.24532489 6.04914678 -2.875 7.0625 C-3.77992187 7.63097656 -4.68484375 8.19945312 -5.6171875 8.78515625 C-6.40351562 9.18605469 -7.18984375 9.58695313 -8 10 C-8.66 9.67 -9.32 9.34 -10 9 C-9.34 8.01 -8.68 7.02 -8 6 C-8.66 5.67 -9.32 5.34 -10 5 C-3.71428571 0.57142857 -3.71428571 0.57142857 0 0 Z " fill="#B98C73" transform="translate(96,48)"/>
<path d="M0 0 C0.66 0.33 1.32 0.66 2 1 C1.34 1.66 0.68 2.32 0 3 C3.54518884 1.60240095 3.54518884 1.60240095 7 0 C7 4 7 4 6 6 C1.38 6 -3.24 6 -8 6 C-5.39710397 3.91768317 -2.77350098 1.84900065 0 0 Z " fill="#AD5A44" transform="translate(83,115)"/>
<path d="M0 0 C2.31 0.33 4.62 0.66 7 1 C4.33665788 2.77556142 1.65774807 4.50086607 -1.0625 6.1875 C-1.94035156 6.73792969 -2.81820312 7.28835937 -3.72265625 7.85546875 C-4.47417969 8.23316406 -5.22570312 8.61085938 -6 9 C-6.66 8.67 -7.32 8.34 -8 8 C-7.67 7.67 -7.34 7.34 -7 7 C-8.98 7.33 -10.96 7.66 -13 8 C-11.9375 6 -11.9375 6 -10 4 C-7.66666667 4 -5.33333333 4 -3 4 C-1.01760473 2.13875077 -1.01760473 2.13875077 0 0 Z " fill="#92503E" transform="translate(82,80)"/>
<path d="M0 0 C6.6 0 13.2 0 20 0 C16.18911488 3.81088512 13.69191391 5.65404304 9 8 C8.34 7.67 7.68 7.34 7 7 C9.31 5.35 11.62 3.7 14 2 C9.38 2 4.76 2 0 2 C0 1.34 0 0.68 0 0 Z " fill="#614D46" transform="translate(117,77)"/>
<path d="M0 0 C0.53625 0.2475 1.0725 0.495 1.625 0.75 C1.625 1.74 1.625 2.73 1.625 3.75 C-3.6484375 6.97265625 -3.6484375 6.97265625 -5.375 7.75 C-7.375 6.75 -7.375 6.75 -8.375 3.75 C-2.95961538 -0.31153846 -2.95961538 -0.31153846 0 0 Z " fill="#C9D7D7" transform="translate(109.375,98.25)"/>
<path d="M0 0 C2.625 0.375 2.625 0.375 5 1 C4.42655063 3.86724686 4.1385485 4.8614515 2 7 C-1.125 7.125 -1.125 7.125 -4 7 C-2.92598892 4.08482708 -2.22189824 2.22189824 0 0 Z " fill="#B3C9CA" transform="translate(145,114)"/>
<path d="M0 0 C2.01822917 0.29296875 4.03645833 0.5859375 6.0546875 0.87890625 C8.08140667 1.1684297 8.08140667 1.1684297 10 0 C10.66 3.63 11.32 7.26 12 11 C11.01 10.67 10.02 10.34 9 10 C9 8.68 9 7.36 9 6 C8.2575 5.71125 7.515 5.4225 6.75 5.125 C4.43260203 4.17697356 2.22082885 3.15154089 0 2 C0 1.34 0 0.68 0 0 Z " fill="#312B29" transform="translate(86,79)"/>
<path d="M0 0 C0.268125 0.598125 0.53625 1.19625 0.8125 1.8125 C2.0728941 4.1342786 2.85873791 5.4494309 5 7 C8.61023099 7.73041853 8.61023099 7.73041853 12 8 C12 8.66 12 9.32 12 10 C8.37 9.67 4.74 9.34 1 9 C1 8.34 1 7.68 1 7 C0.34 7 -0.32 7 -1 7 C-1.04254356 5.00045254 -1.04080783 2.99958364 -1 1 C-0.67 0.67 -0.34 0.34 0 0 Z " fill="#383230" transform="translate(95,113)"/>
<path d="M0 0 C1.231394 3.69418201 0.64432764 6.2056261 0 10 C-1.98 10.66 -3.96 11.32 -6 12 C-5.67 11.34 -5.34 10.68 -5 10 C-4.34 10 -3.68 10 -3 10 C-3 9.34 -3 8.68 -3 8 C-4.32 8.33 -5.64 8.66 -7 9 C-5.33333333 7.33333333 -3.66666667 5.66666667 -2 4 C-2.66 3.67 -3.32 3.34 -4 3 C-2.68 2.01 -1.36 1.02 0 0 Z " fill="#A5A09B" transform="translate(147,92)"/>
<path d="M0 0 C0.66 0 1.32 0 2 0 C1.71617054 1.75128818 1.42260471 3.50100003 1.125 5.25 C0.96257812 6.22453125 0.80015625 7.1990625 0.6328125 8.203125 C0.05144152 10.77264117 -0.70840265 12.72071056 -2 15 C-2.33 15 -2.66 15 -3 15 C-2.22095672 4.44191344 -2.22095672 4.44191344 0 0 Z " fill="#323434" transform="translate(124,88)"/>
<path d="M0 0 C2.35964273 0.40683495 3.85934088 0.89814339 5.8125 2.3125 C7 4 7 4 6.875 6.125 C6.441875 7.053125 6.441875 7.053125 6 8 C5.01 8.33 4.02 8.66 3 9 C3 9.66 3 10.32 3 11 C2.01 11.33 1.02 11.66 0 12 C1.33333333 9.33333333 2.66666667 6.66666667 4 4 C3.01 3.67 2.02 3.34 1 3 C0.67 2.01 0.34 1.02 0 0 Z " fill="#3A3C3C" transform="translate(131,90)"/>
<path d="M0 0 C0.99 0 1.98 0 3 0 C3 0.66 3 1.32 3 2 C2.01 2.66 1.02 3.32 0 4 C-0.33 4.99 -0.66 5.98 -1 7 C0.32 7.66 1.64 8.32 3 9 C3 9.66 3 10.32 3 11 C0.0280615 9.87548273 -2.33440687 8.77706209 -5 7 C-4.24172908 5.82512964 -3.46792245 4.66027408 -2.6875 3.5 C-2.25824219 2.8503125 -1.82898438 2.200625 -1.38671875 1.53125 C-0.70029297 0.77328125 -0.70029297 0.77328125 0 0 Z " fill="#373636" transform="translate(112,90)"/>
<path d="M0 0 C0.99 0.99 1.98 1.98 3 3 C0.69 4.98 -1.62 6.96 -4 9 C-4.66 8.67 -5.32 8.34 -6 8 C-5.67 7.34 -5.34 6.68 -5 6 C-5.66 5.67 -6.32 5.34 -7 5 C-4.69 3.35 -2.38 1.7 0 0 Z " fill="#C2957B" transform="translate(87,42)"/>
<path d="M0 0 C0.66 0.33 1.32 0.66 2 1 C-1.60778414 5.91970564 -4.24665785 7.96940865 -10 10 C-8.91422246 6.74266739 -8.13042199 5.99980864 -5.5625 3.875 C-4.94503906 3.35679688 -4.32757813 2.83859375 -3.69140625 2.3046875 C-2 1 -2 1 0 0 Z " fill="#B5BCBA" transform="translate(110,91)"/>
<path d="M0 0 C0.99 0.33 1.98 0.66 3 1 C3.33 2.65 3.66 4.3 4 6 C3.34 6 2.68 6 2 6 C1.67 6.66 1.34 7.32 1 8 C1 6.35 1 4.7 1 3 C0.16855469 3.45052734 0.16855469 3.45052734 -0.6796875 3.91015625 C-1.40414062 4.29042969 -2.12859375 4.67070313 -2.875 5.0625 C-3.95394531 5.63677734 -3.95394531 5.63677734 -5.0546875 6.22265625 C-5.69664063 6.47917969 -6.33859375 6.73570313 -7 7 C-7.66 6.67 -8.32 6.34 -9 6 C-7.57140593 4.96674014 -6.13177617 3.94872366 -4.6875 2.9375 C-3.88699219 2.36902344 -3.08648437 1.80054687 -2.26171875 1.21484375 C-1.51535156 0.81394531 -0.76898438 0.41304688 0 0 Z " fill="#613F35" transform="translate(95,89)"/>
<path d="M0 0 C-3.19990508 2.74277578 -6.00499382 4.6302836 -10 6 C-9.67 5.01 -9.34 4.02 -9 3 C-9.66 2.67 -10.32 2.34 -11 2 C-6.89657963 -0.38570952 -4.61380251 -1.49270081 0 0 Z " fill="#ACADA9" transform="translate(123,79)"/>
<path d="M0 0 C1.32 0.33 2.64 0.66 4 1 C3.45440934 4.81913463 2.0538034 6.66946583 -1 9 C-4.75 9.75 -4.75 9.75 -8 10 C-6 8 -6 8 -3.4375 7.125 C-0.84172847 6.2637578 -0.84172847 6.2637578 -0.1875 4 C0.03111357 2.0029169 0.03111357 2.0029169 0 0 Z " fill="#37312F" transform="translate(149,113)"/>
<path d="M0 0 C-1.26700723 0.9841125 -2.5387619 1.96211497 -3.8125 2.9375 C-4.87404297 3.75541016 -4.87404297 3.75541016 -5.95703125 4.58984375 C-8 6 -8 6 -11 7 C-11.33 6.34 -11.66 5.68 -12 5 C-11.01 5 -10.02 5 -9 5 C-8.938125 4.38125 -8.87625 3.7625 -8.8125 3.125 C-8 1 -8 1 -5.625 -0.3125 C-3 -1 -3 -1 0 0 Z " fill="#B48B73" transform="translate(70,41)"/>
<path d="M0 0 C3 1 3 1 4.6875 3.3125 C6 6 6 6 6 10 C5.34 10 4.68 10 4 10 C3.67 8.68 3.34 7.36 3 6 C2.34 6 1.68 6 1 6 C0.67 4.02 0.34 2.04 0 0 Z " fill="#8D604D" transform="translate(114,162)"/>
<path d="M0 0 C-0.66 1.65 -1.32 3.3 -2 5 C-3.98 5 -5.96 5 -8 5 C-6.44843568 0.34530705 -4.78780941 0 0 0 Z " fill="#BDC3C1" transform="translate(124,107)"/>
<path d="M0 0 C3.65943647 0.68907122 7.22441959 1.56821266 10.8125 2.5625 C12.27623047 2.96662109 12.27623047 2.96662109 13.76953125 3.37890625 C14.87361328 3.68634766 14.87361328 3.68634766 16 4 C13 6 13 6 10.73828125 5.7578125 C9.93777344 5.54898438 9.13726562 5.34015625 8.3125 5.125 C7.50425781 4.92132813 6.69601563 4.71765625 5.86328125 4.5078125 C5.24839844 4.34023438 4.63351563 4.17265625 4 4 C4 3.34 4 2.68 4 2 C2.68 1.34 1.36 0.68 0 0 Z " fill="#352E2B" transform="translate(74,36)"/>
<path d="M0 0 C0 0.66 0 1.32 0 2 C-1.95224208 3.28406399 -3.96340762 4.47941678 -6 5.625 C-7.11375 6.25664063 -8.2275 6.88828125 -9.375 7.5390625 C-10.24125 8.02117187 -11.1075 8.50328125 -12 9 C-10.6015209 5.5912072 -9.14993067 4.12606165 -6 2.25 C-5.29875 1.82203125 -4.5975 1.3940625 -3.875 0.953125 C-2 0 -2 0 0 0 Z " fill="#CCDCDC" transform="translate(149,82)"/>
<path d="M0 0 C-2.88035092 2.24027294 -5.84866512 4.16172132 -9 6 C-9.66 5.01 -10.32 4.02 -11 3 C-7.16674383 0.29417212 -4.67461851 -0.32613618 0 0 Z " fill="#D2A689" transform="translate(77,66)"/>
<path d="M0 0 C0.66 0.33 1.32 0.66 2 1 C1.8125 2.875 1.8125 2.875 1 5 C-1.5625 6.25 -1.5625 6.25 -4 7 C-4 6.34 -4 5.68 -4 5 C-4.66 4.34 -5.32 3.68 -6 3 C-4.03533587 1.93224776 -2.03144641 0.93446535 0 0 Z " fill="#C9C2BD" transform="translate(104,88)"/>
<path d="M0 0 C-0.33 1.32 -0.66 2.64 -1 4 C-2.8125 4.625 -2.8125 4.625 -5 5 C-5.99 4.34 -6.98 3.68 -8 3 C-4.93882432 0.37613513 -4.26826873 0 0 0 Z " fill="#AE5A45" transform="translate(95,85)"/>
<path d="M0 0 C2.97 0.495 2.97 0.495 6 1 C4.35 2.65 2.7 4.3 1 6 C0.34 5.67 -0.32 5.34 -1 5 C-0.67 3.35 -0.34 1.7 0 0 Z " fill="#BECBCA" transform="translate(97,78)"/>
<path d="M0 0 C0.33 0.66 0.66 1.32 1 2 C3.12576782 2.46651207 3.12576782 2.46651207 5.5625 2.625 C6.38878906 2.69976562 7.21507813 2.77453125 8.06640625 2.8515625 C8.70449219 2.90054688 9.34257813 2.94953125 10 3 C8.68 3.99 7.36 4.98 6 6 C5.34 5.67 4.68 5.34 4 5 C3.34 4.835 2.68 4.67 2 4.5 C0 4 0 4 -2 3 C-1.34 2.01 -0.68 1.02 0 0 Z " fill="#B38971" transform="translate(77,38)"/>
<path d="M0 0 C2.475 0.495 2.475 0.495 5 1 C5.125 4.375 5.125 4.375 5 8 C4.34 8.66 3.68 9.32 3 10 C2.51171875 7.98177083 2.0234375 5.96354167 1.53515625 3.9453125 C1.05153008 1.9414343 1.05153008 1.9414343 0 0 Z " fill="#2A2727" transform="translate(147,77)"/>
<path d="M0 0 C0.33 0.66 0.66 1.32 1 2 C2.98 1.34 4.96 0.68 7 0 C6.25 1.9375 6.25 1.9375 5 4 C2.875 4.75 2.875 4.75 1 5 C1 4.34 1 3.68 1 3 C0.34 3 -0.32 3 -1 3 C-0.67 2.01 -0.34 1.02 0 0 Z " fill="#D5A88B" transform="translate(58,53)"/>
<path d="M0 0 C1.32 0.33 2.64 0.66 4 1 C3.6875 2.875 3.6875 2.875 3 5 C2.01 5.66 1.02 6.32 0 7 C0 4.69 0 2.38 0 0 Z " fill="#794C3C" transform="translate(114,147)"/>
<path d="M0 0 C2.64 0 5.28 0 8 0 C3.69230769 3.93846154 3.69230769 3.93846154 0.1875 4.25 C-0.534375 4.1675 -1.25625 4.085 -2 4 C-1.34 2.68 -0.68 1.36 0 0 Z " fill="#B4BAB8" transform="translate(125,78)"/>
<path d="M0 0 C0.66 0.33 1.32 0.66 2 1 C2 1.99 2 2.98 2 4 C-1 6 -1 6 -3.1875 5.625 C-3.785625 5.41875 -4.38375 5.2125 -5 5 C-3.35 3.35 -1.7 1.7 0 0 Z " fill="#C4624A" transform="translate(56,105)"/>
<path d="M0 0 C0.66 0.33 1.32 0.66 2 1 C0.84826645 3.46800047 -0.04783565 5.04783565 -2 7 C-3.65 5.68 -5.3 4.36 -7 3 C-4.69631264 1.93347808 -2.35981813 0.93578995 0 0 Z " fill="#B5BEBC" transform="translate(138,86)"/>
<path d="M0 0 C0.66 0.99 1.32 1.98 2 3 C-0.97 5.475 -0.97 5.475 -4 8 C-4.99 7.34 -5.98 6.68 -7 6 C-6.030625 5.38125 -5.06125 4.7625 -4.0625 4.125 C-0.97164638 2.34321154 -0.97164638 2.34321154 0 0 Z " fill="#433631" transform="translate(89,65)"/>
<path d="M0 0 C0 3 0 3 -2 5.1875 C-2.66 5.785625 -3.32 6.38375 -4 7 C-4.66 6.67 -5.32 6.34 -6 6 C-4.95125002 3.37812506 -4.35068687 2.20628639 -1.875 0.75 C-1.25625 0.5025 -0.6375 0.255 0 0 Z " fill="#D4A689" transform="translate(76,38)"/>
<path d="M0 0 C3.1875 0.3125 3.1875 0.3125 6 1 C6 1.66 6 2.32 6 3 C3.03 3 0.06 3 -3 3 C-2.01 2.01 -1.02 1.02 0 0 Z " fill="#433936" transform="translate(118,120)"/>
<path d="M0 0 C1.125 3.75 1.125 3.75 0 6 C-1.65 6 -3.3 6 -5 6 C-3.63016497 2.83884224 -3.0109362 2.0072908 0 0 Z " fill="#BF6149" transform="translate(89,115)"/>
<path d="M0 0 C-2.97 2.475 -2.97 2.475 -6 5 C-6.66 4.67 -7.32 4.34 -8 4 C-7 1 -7 1 -5.125 -0.25 C-3 -1 -3 -1 0 0 Z " fill="#C8D6D5" transform="translate(143,81)"/>
<path d="M0 0 C0.66 0 1.32 0 2 0 C2.33 2.64 2.66 5.28 3 8 C2.34 8 1.68 8 1 8 C-0.35439668 5.29120665 -0.06501451 2.99066732 0 0 Z " fill="#2B2929" transform="translate(99,105)"/>
<path d="M0 0 C1.10844919 3.32534757 0.84454356 5.62182575 0 9 C-0.99 8.67 -1.98 8.34 -3 8 C-2.67 6.02 -2.34 4.04 -2 2 C-1.34 2 -0.68 2 0 2 C0 1.34 0 0.68 0 0 Z " fill="#3D3330" transform="translate(151,85)"/>
<path d="M0 0 C0.66 0.33 1.32 0.66 2 1 C0.35 2.65 -1.3 4.3 -3 6 C-3.66 4.68 -4.32 3.36 -5 2 C-2.625 0.9375 -2.625 0.9375 0 0 Z " fill="#584239" transform="translate(65,64)"/>
<path d="M0 0 C-4.625 4 -4.625 4 -8 4 C-8 3.34 -8 2.68 -8 2 C-3.61016949 -1.20338983 -3.61016949 -1.20338983 0 0 Z " fill="#CAD8D8" transform="translate(139,79)"/>
</svg>
